#!OML:ASF F:\VICON\USERDATA\INSTALL\rory3\rory3.ASF
:FULLY-SPECIFIED
:DEGREES
196
root -3.36251 14.6541 30.9493 -121.73 -12.5251 -192.792
lowerback 29.8599 -2.59021 12.9386
upperback 2.25847 0.767047 9.74534
thorax -12.9905 -0.680887 3.51643
lowerneck -17.9199 -7.6115 -7.76484
upperneck 3.03883 -9.27258 8.41708
head 4.51942 -4.23811 2.9871
rclavicle -1.59028e-014 -4.8901e-014
rhumerus 52.8117 -0.399712 -48.6894
rradius 27.0462
rwrist 18.3355
rhand -29.5842 -66.1557
rfingers 7.12502
rthumb -2.91595 -1343.88
lclavicle -1.59028e-014 -4.8901e-014
lhumerus 53.5055 0.059026 4.25109
lradius 36.7804
lwrist -8.59409
lhand -46.0985 -55.6642
lfingers 7.12502
lthumb -18.8404 -26.5566
rfemur -102.728 -1.8172 17.3721
rtibia 71.8878
rfoot -24.5343 -22.4721
rtoes 16.0299
lfemur -27.0892 -5.57779 -21.3033
ltibia 27.6763
lfoot -6.52665 -5.67577
ltoes -8.24892
197
root -3.36604 14.6347 30.7309 -120.751 -11.0571 -193.022
lowerback 31.5953 -2.36118 12.4495
upperback 2.15671 1.24375 9.56864
thorax -13.8853 -0.477664 3.46214
lowerneck -18.142 -7.38304 -7.18071
upperneck 2.45151 -9.03244 7.83857
head 4.29314 -4.16507 2.74589
rclavicle -1.27222e-014 6.55989e-015
rhumerus 53.8252 -1.06523 -48.5491
rradius 27.1014
rwrist 17.8457
rhand -30.0561 -66.873
rfingers 7.12502
rthumb -3.37161 -1343.17
lclavicle -1.27222e-014 6.55989e-015
lhumerus 55.7434 1.49029 3.98711
lradius 36.6315
lwrist -8.37303
lhand -46.1938 -52.9446
lfingers 7.12502
lthumb -18.9321 -23.8459
rfemur -103.149 -1.37077 16.2337
rtibia 72.0156
rfoot -24.9379 -22.3785
rtoes 14.4506
lfemur -26.6218 -5.72344 -22.2179
ltibia 27.213
lfoot -7.0401 -5.21402
ltoes -14.7176
198
root -3.37533 14.616 30.4792 -119.655 -10.4183 -193.021
lowerback 32.8382 -2.6373 12.8152
upperback 2.20072 1.2116 9.67308
thorax -14.3437 -0.545172 3.46091
lowerneck -18.9659 -7.21743 -7.12496
upperneck 2.30168 -8.36692 7.60492
head 4.31247 -3.6536 2.73017
rclavicle -9.54166e-014 -5.26779e-014
rhumerus 55.8081 -1.17648 -48.5691
rradius 27.216
rwrist 17.309
rhand -29.4862 -68.2451
rfingers 7.12502
rthumb -2.82126 -1341.79
lclavicle -9.54166e-014 -5.26779e-014
lhumerus 56.9513 3.17787 5.08072
lradius 36.1762
lwrist -10.2524
lhand -46.6318 -52.177
lfingers 7.12502
lthumb -19.3533 -23.12
rfemur -103.531 -1.20226 16.1575
rtibia 72.1972
rfoot -25.4702 -22.2863
rtoes 12.0903
lfemur -26.0968 -6.37994 -22.2115
ltibia 26.7248
lfoot -7.75027 -4.26552
ltoes 4.00396
199
root -3.38664 14.5953 30.2278 -118.482 -9.81523 -193.004
lowerback 33.9605 -2.77518 13.3776
upperback 1.99339 1.48765 9.58378
thorax -15.0098 -0.494063 3.02425
lowerneck -19.261 -6.97836 -6.6987
upperneck 2.12764 -8.08485 7.41351
head 4.25681 -3.50971 2.63081
rclavicle 5.40694e-014 -4.46272e-014
rhumerus 56.7981 -1.86448 -49.6339
rradius 27.2848
rwrist 17.7507
rhand -28.7296 -69.8661
rfingers 7.12502
rthumb -2.09054 -1340.16
lclavicle 5.40694e-014 -4.46272e-014
lhumerus 58.9106 4.36372 5.42459
lradius 35.9324
lwrist -11.3165
lhand -46.2284 -55.5405
lfingers 7.12502
lthumb -18.9653 -26.4451
rfemur -103.973 -1.20065 16.3644
rtibia 72.4213
rfoot -25.9735 -21.9455
rtoes 9.71648
lfemur -25.4209 -6.18339 -22.3579
ltibia 26.1071
lfoot -8.02014 -4.10592
ltoes 4.99741
200
root -3.39754 14.5627 29.9945 -117.357 -8.85005 -193.139
lowerback 35.3742 -3.09758 13.2977
upperback 1.99428 1.31252 9.60449
thorax -15.5983 -0.590314 3.23111
lowerneck -20.6548 -6.52227 -6.64362
upperneck 2.3162 -7.35557 7.33673
head 4.46887 -3.10366 2.64848
rclavicle -6.20208e-014 -1.41038e-013
rhumerus 58.806 -1.73007 -50.1312
rradius 27.4257
rwrist 17.2922
rhand -28.9144 -71.042
rfingers 7.12502
rthumb -2.26908 -1338.99
lclavicle -6.20208e-014 -1.41038e-013
lhumerus 59.7763 6.01991 5.93267
lradius 35.6415
lwrist -12.513
lhand -45.6871 -58.3035
lfingers 7.12502
lthumb -18.4447 -29.158
rfemur -104.496 -1.26722 16.1531
rtibia 72.7197
rfoot -26.5322 -21.2763
rtoes 8.17446
lfemur -24.3131 -5.86244 -23.0331
ltibia 25.4132
lfoot -8.05555 -3.67752
ltoes 1.98161
201
root -3.4094 14.5264 29.7638 -116.345 -7.73153 -193.285
lowerback 36.9119 -3.29119 13.2021
upperback 1.76929 1.36423 9.59145
thorax -16.3864 -0.590608 3.40043
lowerneck -21.1983 -6.28193 -6.95974
upperneck 2.08209 -6.87342 7.39228
head 4.45614 -2.84064 2.7629
rclavicle 3.02153e-014 -1.30254e-013
rhumerus 60.1651 -1.63437 -50.1695
rradius 27.6515
rwrist 16.9112
rhand -29.349 -70.9703
rfingers 7.12502
rthumb -2.6888 -1339.07
lclavicle 3.02153e-014 -1.30254e-013
lhumerus 60.711 7.34444 5.10188
lradius 35.577
lwrist -11.628
lhand -45.5936 -60.4077
lfingers 7.12502
lthumb -18.3548 -31.2537
rfemur -104.997 -1.35412 15.7752
rtibia 73.0671
rfoot -27.0136 -20.4565
rtoes 6.69084
lfemur -22.8388 -4.78694 -24.0298
ltibia 24.6437
lfoot -8.37198 -3.76372
ltoes -1.43739
202
root -3.42352 14.4987 29.5292 -115.51 -6.63479 -193.255
lowerback 38.3723 -3.21815 13.384
upperback 1.65514 1.8128 9.43711
thorax -17.062 -0.458255 2.99962
lowerneck -21.7963 -6.32499 -6.70059
upperneck 1.67915 -6.88456 7.297
head 4.40473 -2.81867 2.68699
rclavicle -1.08139e-013 -5.96354e-014
rhumerus 60.753 -2.58596 -50.558
rradius 28.0235
rwrist 17.2876
rhand -29.2001 -70.555
rfingers 7.12502
rthumb -2.54491 -1339.48
lclavicle -1.08139e-013 -5.96354e-014
lhumerus 62.7739 8.62516 5.36075
lradius 35.3002
lwrist -11.0624
lhand -45.6757 -62.762
lfingers 7.12502
lthumb -18.4337 -33.6154
rfemur -105.308 -1.36259 15.5907
rtibia 73.4227
rfoot -27.2666 -19.618
rtoes 4.5303
lfemur -20.9576 -3.15396 -24.9221
ltibia 23.713
lfoot -8.58775 -4.45864
ltoes -6.06582
